<svg width="24" height="24" viewBox="0 0 24 24" fill="none" xmlns="http://www.w3.org/2000/svg">
<g id="game-icons:canned-fish">
<path id="Vector" d="M12 3.04688C8.93906 3.04688 6.16875 3.54797 4.20187 4.33594C3.21797 4.72969 2.4375 5.19375 1.92375 5.68125C1.41047 6.16406 1.17188 6.64687 1.17188 7.125C1.17188 7.60313 1.41047 8.08594 1.92375 8.56875C2.4375 9.05625 3.21797 9.52031 4.20187 9.91406C6.16875 10.7016 8.93906 11.2031 12 11.2031C15.0609 11.2031 17.8312 10.7016 19.8 9.91406C20.7797 9.52031 21.5625 9.05625 22.0781 8.56875C22.5891 8.08594 22.8281 7.60313 22.8281 7.125C22.8281 6.64687 22.5891 6.16406 22.0781 5.68125C21.5625 5.19375 20.7797 4.72969 19.8 4.33594C17.8312 3.54797 15.0609 3.04688 12 3.04688ZM12.0047 3.68109C14.4094 3.68109 16.5891 3.98906 18.1969 4.50469C19.0031 4.7625 19.6688 5.06719 20.1609 5.44219C20.6578 5.8125 21.0047 6.28594 21.0047 6.84375C21.0047 7.40156 20.6578 7.875 20.1609 8.24531C19.6688 8.62031 19.0031 8.925 18.1969 9.18281C16.5891 9.69844 14.4094 10.0078 12.0047 10.0078C9.6 10.0078 7.42031 9.69844 5.8125 9.18281C5.00625 8.925 4.33922 8.62031 3.84609 8.24531C3.35344 7.875 3.00469 7.40156 3.00469 6.84375C3.00469 6.28594 3.35344 5.8125 3.84609 5.44219C4.33922 5.06719 5.00625 4.7625 5.8125 4.50469C7.42031 3.98906 9.6 3.68109 12.0047 3.68109ZM12.0047 4.52344C9.67031 4.52344 7.56094 4.83281 6.06562 5.30625C5.32031 5.54531 4.72969 5.83125 4.35516 6.1125C3.97969 6.39844 3.84844 6.64219 3.84844 6.84375C3.84844 7.04531 3.97969 7.28906 4.35516 7.575C4.72969 7.85625 5.32031 8.14219 6.06562 8.38125C7.56094 8.85469 9.67031 9.16406 12.0047 9.16406C14.3391 9.16406 16.4484 8.85469 17.9437 8.38125C18.6891 8.14219 19.2797 7.85625 19.6547 7.575C20.0297 7.28906 20.1609 7.04531 20.1609 6.84375C20.1609 6.64219 20.0297 6.39844 19.6547 6.1125C19.2797 5.83125 18.6891 5.54531 17.9437 5.30625C16.4484 4.83281 14.3391 4.52344 12.0047 4.52344ZM1.17188 9.00937V16.875C1.17188 17.4937 1.4475 18.0281 2.00156 18.5344C2.55516 19.0406 3.38719 19.4906 4.40719 19.8516C6.44531 20.5781 9.225 20.9531 12 20.9531C14.775 20.9531 17.5547 20.5781 19.5938 19.8516C20.6109 19.4906 21.4453 19.0406 21.9984 18.5344C22.5516 18.0281 22.8281 17.4937 22.8281 16.875V9.00937C22.7719 9.07031 22.7156 9.12656 22.6547 9.18281C22.0312 9.77344 21.1641 10.2797 20.1094 10.6969C18.0094 11.5406 15.15 12.0469 12 12.0469C8.85 12.0469 5.99062 11.5406 3.88828 10.6969C2.83594 10.2797 1.96922 9.77344 1.34438 9.18281C1.28438 9.12656 1.22719 9.07031 1.17188 9.00937ZM4.5 13.125L7.51875 15.3844C9.07969 14.6672 10.8844 13.7859 13.8797 13.7859C15.7547 13.7859 19.5047 15 19.5047 15.9422C19.5047 16.875 15.7547 18.0938 13.8797 18.0938C10.8844 18.0938 9.07969 17.2078 7.51875 16.4906L4.5 18.75V13.125Z" fill="#B6BAC3"/>
</g>
</svg>
