<svg width="24" height="24" viewBox="0 0 24 24" fill="none" xmlns="http://www.w3.org/2000/svg">
<g id="jam:eggs-f">
<path id="Vector" d="M8 20.5C6.4087 20.5 4.88258 19.8679 3.75736 18.7426C2.63214 17.6174 2 16.0913 2 14.5C2 11.186 5 5.5 8 5.5C11 5.5 14 11.186 14 14.5C14 16.0913 13.3679 17.6174 12.2426 18.7426C11.1174 19.8679 9.5913 20.5 8 20.5ZM14.612 18.339C15.5109 17.2619 16.0023 15.9029 16 14.5C16 11.982 14.268 8.095 12.12 6.373C13.213 4.727 14.607 3.5 16 3.5C19 3.5 22 9.186 22 12.5C22.0003 13.4061 21.7953 14.3005 21.4005 15.1161C21.0057 15.9317 20.4313 16.6472 19.7204 17.2091C19.0095 17.7709 18.1806 18.1645 17.2958 18.3602C16.4111 18.5558 15.4935 18.5486 14.612 18.339Z" fill="#B6BAC3"/>
</g>
</svg>
