<svg width="20" height="20" viewBox="0 0 20 20" fill="none" xmlns="http://www.w3.org/2000/svg">
<g id="Frame" clip-path="url(#clip0_3222_750)">
<g id="Group">
<path id="Vector" d="M4.66663 20H18C18.3536 20 18.6927 19.8595 18.9428 19.6095C19.1928 19.3594 19.3333 19.0203 19.3333 18.6667V3.61C19.333 3.47222 19.304 3.33601 19.2483 3.21C19.2452 3.20284 19.2415 3.19593 19.2373 3.18933C19.189 3.08277 19.1222 2.98561 19.04 2.90233L16.4313 0.293333C16.348 0.211139 16.2509 0.144331 16.1443 0.096C16.1377 0.0918109 16.1308 0.0881334 16.1236 0.085C15.9975 0.0292232 15.8612 0.000277246 15.7233 0L4.66663 0C4.313 0 3.97387 0.140476 3.72382 0.390524C3.47377 0.640573 3.33329 0.979711 3.33329 1.33333V10.6667H1.33329C1.15648 10.6667 0.986912 10.7369 0.861888 10.8619C0.736864 10.987 0.666626 11.1565 0.666626 11.3333L0.666626 17.3333C0.666626 17.5101 0.736864 17.6797 0.861888 17.8047C0.986912 17.9298 1.15648 18 1.33329 18H3.33329V18.6667C3.33329 19.0203 3.47377 19.3594 3.72382 19.6095C3.97387 19.8595 4.313 20 4.66663 20ZM18.1953 3H17.2933C17.0388 2.99974 16.7947 2.89851 16.6148 2.71853C16.4348 2.53855 16.3336 2.29453 16.3333 2.04V1.138L18.1953 3ZM3.99996 1.33333C3.99996 1.15652 4.0702 0.986953 4.19522 0.861929C4.32025 0.736905 4.48981 0.666667 4.66663 0.666667H15.6666V2.04C15.6671 2.47128 15.8386 2.88478 16.1436 3.18974C16.4485 3.4947 16.862 3.66623 17.2933 3.66667H18.6666V18.6667C18.6666 18.8435 18.5964 19.013 18.4714 19.1381C18.3463 19.2631 18.1768 19.3333 18 19.3333H4.66663C4.48981 19.3333 4.32025 19.2631 4.19522 19.1381C4.0702 19.013 3.99996 18.8435 3.99996 18.6667V18H12C12.1768 18 12.3463 17.9298 12.4714 17.8047C12.5964 17.6797 12.6666 17.5101 12.6666 17.3333V11.3333C12.6666 11.1565 12.5964 10.987 12.4714 10.8619C12.3463 10.7369 12.1768 10.6667 12 10.6667H3.99996V1.33333ZM1.33329 11.3333H12V17.3333H1.33329V11.3333Z" fill="black"/>
<path id="Vector_2" d="M5.66659 2.99998H13.6666C13.755 2.99998 13.8398 2.96486 13.9023 2.90235C13.9648 2.83984 13.9999 2.75505 13.9999 2.66665C13.9999 2.57824 13.9648 2.49346 13.9023 2.43094C13.8398 2.36843 13.755 2.33331 13.6666 2.33331H5.66659C5.57818 2.33331 5.4934 2.36843 5.43088 2.43094C5.36837 2.49346 5.33325 2.57824 5.33325 2.66665C5.33325 2.75505 5.36837 2.83984 5.43088 2.90235C5.4934 2.96486 5.57818 2.99998 5.66659 2.99998ZM5.66659 4.66665H13.6666C13.755 4.66665 13.8398 4.63153 13.9023 4.56902C13.9648 4.5065 13.9999 4.42172 13.9999 4.33331C13.9999 4.24491 13.9648 4.16012 13.9023 4.09761C13.8398 4.0351 13.755 3.99998 13.6666 3.99998H5.66659C5.57818 3.99998 5.4934 4.0351 5.43088 4.09761C5.36837 4.16012 5.33325 4.24491 5.33325 4.33331C5.33325 4.42172 5.36837 4.5065 5.43088 4.56902C5.4934 4.63153 5.57818 4.66665 5.66659 4.66665ZM5.66659 6.33331H16.9999C17.0883 6.33331 17.1731 6.29819 17.2356 6.23568C17.2981 6.17317 17.3333 6.08839 17.3333 5.99998C17.3333 5.91157 17.2981 5.82679 17.2356 5.76428C17.1731 5.70177 17.0883 5.66665 16.9999 5.66665H5.66659C5.57818 5.66665 5.4934 5.70177 5.43088 5.76428C5.36837 5.82679 5.33325 5.91157 5.33325 5.99998C5.33325 6.08839 5.36837 6.17317 5.43088 6.23568C5.4934 6.29819 5.57818 6.33331 5.66659 6.33331ZM5.66659 7.99998H16.9999C17.0883 7.99998 17.1731 7.96486 17.2356 7.90235C17.2981 7.83984 17.3333 7.75505 17.3333 7.66665C17.3333 7.57824 17.2981 7.49346 17.2356 7.43094C17.1731 7.36843 17.0883 7.33331 16.9999 7.33331H5.66659C5.57818 7.33331 5.4934 7.36843 5.43088 7.43094C5.36837 7.49346 5.33325 7.57824 5.33325 7.66665C5.33325 7.75505 5.36837 7.83984 5.43088 7.90235C5.4934 7.96486 5.57818 7.99998 5.66659 7.99998ZM17.3333 9.33331C17.3333 9.24491 17.2981 9.16012 17.2356 9.09761C17.1731 9.0351 17.0883 8.99998 16.9999 8.99998H5.66659C5.57818 8.99998 5.4934 9.0351 5.43088 9.09761C5.36837 9.16012 5.33325 9.24491 5.33325 9.33331C5.33325 9.42172 5.36837 9.5065 5.43088 9.56902C5.4934 9.63153 5.57818 9.66665 5.66659 9.66665H16.9999C17.0883 9.66665 17.1731 9.63153 17.2356 9.56902C17.2981 9.5065 17.3333 9.42172 17.3333 9.33331ZM16.9999 10.6666H13.9999C13.9115 10.6666 13.8267 10.7018 13.7642 10.7643C13.7017 10.8268 13.6666 10.9116 13.6666 11C13.6666 11.0884 13.7017 11.1732 13.7642 11.2357C13.8267 11.2982 13.9115 11.3333 13.9999 11.3333H16.9999C17.0883 11.3333 17.1731 11.2982 17.2356 11.2357C17.2981 11.1732 17.3333 11.0884 17.3333 11C17.3333 10.9116 17.2981 10.8268 17.2356 10.7643C17.1731 10.7018 17.0883 10.6666 16.9999 10.6666ZM16.9999 12.3333H13.9999C13.9115 12.3333 13.8267 12.3684 13.7642 12.4309C13.7017 12.4935 13.6666 12.5782 13.6666 12.6666C13.6666 12.7551 13.7017 12.8398 13.7642 12.9023C13.8267 12.9649 13.9115 13 13.9999 13H16.9999C17.0883 13 17.1731 12.9649 17.2356 12.9023C17.2981 12.8398 17.3333 12.7551 17.3333 12.6666C17.3333 12.5782 17.2981 12.4935 17.2356 12.4309C17.1731 12.3684 17.0883 12.3333 16.9999 12.3333ZM16.9999 14H13.9999C13.9115 14 13.8267 14.0351 13.7642 14.0976C13.7017 14.1601 13.6666 14.2449 13.6666 14.3333C13.6666 14.4217 13.7017 14.5065 13.7642 14.569C13.8267 14.6315 13.9115 14.6666 13.9999 14.6666H16.9999C17.0883 14.6666 17.1731 14.6315 17.2356 14.569C17.2981 14.5065 17.3333 14.4217 17.3333 14.3333C17.3333 14.2449 17.2981 14.1601 17.2356 14.0976C17.1731 14.0351 17.0883 14 16.9999 14ZM16.9999 15.6666H13.9999C13.9115 15.6666 13.8267 15.7018 13.7642 15.7643C13.7017 15.8268 13.6666 15.9116 13.6666 16C13.6666 16.0884 13.7017 16.1732 13.7642 16.2357C13.8267 16.2982 13.9115 16.3333 13.9999 16.3333H16.9999C17.0883 16.3333 17.1731 16.2982 17.2356 16.2357C17.2981 16.1732 17.3333 16.0884 17.3333 16C17.3333 15.9116 17.2981 15.8268 17.2356 15.7643C17.1731 15.7018 17.0883 15.6666 16.9999 15.6666ZM16.9999 17.3333H13.9999C13.9115 17.3333 13.8267 17.3684 13.7642 17.4309C13.7017 17.4935 13.6666 17.5782 13.6666 17.6666C13.6666 17.7551 13.7017 17.8398 13.7642 17.9023C13.8267 17.9649 13.9115 18 13.9999 18H16.9999C17.0883 18 17.1731 17.9649 17.2356 17.9023C17.2981 17.8398 17.3333 17.7551 17.3333 17.6666C17.3333 17.5782 17.2981 17.4935 17.2356 17.4309C17.1731 17.3684 17.0883 17.3333 16.9999 17.3333ZM6.33325 16.3333C6.68687 16.3333 7.02601 16.1928 7.27606 15.9428C7.52611 15.6927 7.66659 15.3536 7.66659 15V13.6666C7.66659 13.313 7.52611 12.9739 7.27606 12.7238C7.02601 12.4738 6.68687 12.3333 6.33325 12.3333C5.97963 12.3333 5.64049 12.4738 5.39044 12.7238C5.14039 12.9739 4.99992 13.313 4.99992 13.6666V15C4.99992 15.3536 5.14039 15.6927 5.39044 15.9428C5.64049 16.1928 5.97963 16.3333 6.33325 16.3333ZM5.66659 13.6666C5.66659 13.4898 5.73682 13.3203 5.86185 13.1952C5.98687 13.0702 6.15644 13 6.33325 13C6.51006 13 6.67963 13.0702 6.80466 13.1952C6.92968 13.3203 6.99992 13.4898 6.99992 13.6666V15C6.99992 15.1768 6.92968 15.3464 6.80466 15.4714C6.67963 15.5964 6.51006 15.6666 6.33325 15.6666C6.15644 15.6666 5.98687 15.5964 5.86185 15.4714C5.73682 15.3464 5.66659 15.1768 5.66659 15V13.6666ZM4.66659 16C4.66659 15.9116 4.63147 15.8268 4.56895 15.7643C4.50644 15.7018 4.42166 15.6666 4.33325 15.6666H2.99992V12.6666C2.99992 12.5782 2.9648 12.4935 2.90229 12.4309C2.83978 12.3684 2.75499 12.3333 2.66659 12.3333C2.57818 12.3333 2.4934 12.3684 2.43088 12.4309C2.36837 12.4935 2.33325 12.5782 2.33325 12.6666V15.6666C2.33325 15.8435 2.40349 16.013 2.52851 16.1381C2.65354 16.2631 2.82311 16.3333 2.99992 16.3333H4.33325C4.42166 16.3333 4.50644 16.2982 4.56895 16.2357C4.63147 16.1732 4.66659 16.0884 4.66659 16ZM9.66659 16.3333C10.0202 16.3333 10.3593 16.1928 10.6094 15.9428C10.8594 15.6927 10.9999 15.3536 10.9999 15V14.6666C10.9999 14.5782 10.9648 14.4935 10.9023 14.4309C10.8398 14.3684 10.755 14.3333 10.6666 14.3333H9.99992C9.91151 14.3333 9.82673 14.3684 9.76422 14.4309C9.7017 14.4935 9.66659 14.5782 9.66659 14.6666C9.66659 14.7551 9.7017 14.8398 9.76422 14.9023C9.82673 14.9649 9.91151 15 9.99992 15H10.3333C10.3333 15.1768 10.263 15.3464 10.138 15.4714C10.013 15.5964 9.8434 15.6666 9.66659 15.6666C9.48977 15.6666 9.32021 15.5964 9.19518 15.4714C9.07016 15.3464 8.99992 15.1768 8.99992 15V13.6666C8.99958 13.5091 9.05502 13.3566 9.15641 13.2361C9.2578 13.1155 9.3986 13.0348 9.55383 13.0082C9.70907 12.9815 9.86873 13.0107 10.0045 13.0905C10.1403 13.1704 10.2434 13.2957 10.2956 13.4443C10.3276 13.5241 10.3892 13.5885 10.4676 13.6239C10.5459 13.6593 10.635 13.6631 10.716 13.6345C10.7971 13.6058 10.864 13.5469 10.9027 13.4701C10.9413 13.3933 10.9488 13.3045 10.9236 13.2223C10.8187 12.9258 10.6124 12.676 10.3411 12.5169C10.0699 12.3578 9.75112 12.2997 9.44116 12.3528C9.13121 12.406 8.85003 12.567 8.6473 12.8074C8.44456 13.0478 8.33333 13.3522 8.33325 13.6666V15C8.33325 15.3536 8.47373 15.6927 8.72378 15.9428C8.97382 16.1928 9.31296 16.3333 9.66659 16.3333Z" fill="black"/>
</g>
</g>
<defs>
<clipPath id="clip0_3222_750">
<rect width="20" height="20" fill="white"/>
</clipPath>
</defs>
</svg>
