<svg width="24" height="24" viewBox="0 0 24 24" fill="none" xmlns="http://www.w3.org/2000/svg">
<g id="mdi:chocolate">
<path id="Vector" d="M15.54 8.46C17.5 10.42 17.5 13.58 15.54 15.54C13.58 17.5 10.42 17.5 8.47001 15.54C6.52001 13.58 6.50001 10.42 8.47001 8.46C10.44 6.5 13.58 6.5 15.54 8.46ZM19.47 4.55C19.47 4.55 18.5 4.67 17.43 5.36C17.2596 4.24407 16.7335 3.21296 15.93 2.42C15.4149 2.91673 15.0415 3.54176 14.8481 4.23074C14.6548 4.91973 14.6485 5.64779 14.83 6.34C16.22 6.7 17.3 7.78 17.66 9.17C18.78 9.47 20.34 9.32 21.58 8.07C20.7961 7.27798 19.7804 6.75611 18.68 6.58C19.07 6 19.38 5.33 19.47 4.55ZM4.53001 19.45C4.53001 19.45 5.50001 19.33 6.57001 18.64C6.72001 19.68 7.22001 20.73 8.07001 21.58C9.32001 20.34 9.47001 18.78 9.17001 17.66C8.48848 17.4842 7.86651 17.1289 7.36881 16.6312C6.87111 16.1335 6.51586 15.5115 6.34001 14.83C5.22001 14.53 3.66001 14.68 2.42001 15.93C3.26001 16.77 4.29001 17.27 5.32001 17.42C4.93001 18 4.62001 18.68 4.53001 19.45Z" fill="#B6BAC3"/>
</g>
</svg>
